<svg width="24" height="24" viewBox="0 0 24 24" fill="none" xmlns="http://www.w3.org/2000/svg">
<path d="M22.7403 3.13825C22.0457 3.13825 21.4806 3.70535 21.4806 4.40233V4.85003H21.0472V4.83686C21.0472 3.67517 20.1021 2.73006 18.9404 2.73006H2.94953C1.78784 2.73006 0.842723 3.67517 0.842723 4.83686V11.9825C0.842723 13.1442 1.78784 14.0893 2.94953 14.0893H3.80099V17.504C3.80099 17.7367 3.98966 17.9254 4.22236 17.9254C4.45505 17.9254 4.64372 17.7367 4.64372 17.504V14.0893H5.48644C6.64813 14.0893 7.59325 13.1442 7.59325 11.9825V9.90637H13.8665V18.3029H1.26408C0.5671 18.3029 0 18.87 0 19.567V20.8486C0 21.0813 0.188664 21.27 0.421361 21.27H21.4686C21.7013 21.27 21.8899 21.0813 21.8899 20.8486V19.567C21.8899 19.0177 21.5376 18.5493 21.0472 18.3754V7.77322H21.4806V8.23409C21.4806 8.93107 22.0457 9.49817 22.7403 9.49817C23.435 9.49817 24 8.93107 24 8.23409V4.40233C24 3.70535 23.435 3.13825 22.7403 3.13825ZM12.6232 9.06364V5.67959C12.6232 5.44689 12.4346 5.25822 12.2019 5.25822C11.9692 5.25822 11.7805 5.44689 11.7805 5.67959V9.06364H9.70005V5.67959C9.70005 5.44689 9.51139 5.25822 9.27869 5.25822C9.04599 5.25822 8.85733 5.44689 8.85733 5.67959V9.06364H7.17189C6.93919 9.06364 6.75052 9.25231 6.75052 9.485V11.9825C6.75052 12.6794 6.18342 13.2465 5.48644 13.2465H2.94953C2.25254 13.2465 1.68545 12.6794 1.68545 11.9825V4.83686C1.68545 4.13988 2.25254 3.57278 2.94953 3.57278H8.85733V4.02048C8.85733 4.25317 9.04599 4.44184 9.27869 4.44184C9.51139 4.44184 9.70005 4.25317 9.70005 4.02048V3.57278H11.7805V4.02048C11.7805 4.25317 11.9692 4.44184 12.2019 4.44184C12.4346 4.44184 12.6232 4.25317 12.6232 4.02048V3.57278H18.9404C19.6374 3.57278 20.2045 4.13988 20.2045 4.83686V18.2326H14.7092V9.485C14.7092 9.25231 14.5206 9.06364 14.2879 9.06364H12.6232ZM21.0472 20.4272H0.842723V19.567C0.842723 19.3346 1.03176 19.1456 1.26408 19.1456H20.6258C20.8582 19.1456 21.0472 19.3346 21.0472 19.567V20.4272ZM21.0472 6.9305V5.69275H21.4806V6.9305H21.0472ZM23.1573 8.23409C23.1573 8.46642 22.9702 8.65545 22.7403 8.65545C22.5104 8.65545 22.3234 8.46642 22.3234 8.23409V4.40233C22.3234 4.17001 22.5104 3.98097 22.7403 3.98097C22.9702 3.98097 23.1573 4.17001 23.1573 4.40233V8.23409Z" fill="#D31212"/>
<path d="M16.0073 9.8932H18.9173C19.15 9.8932 19.3387 9.70453 19.3387 9.47184C19.3387 9.23914 19.15 9.05048 18.9173 9.05048H16.0073C15.7746 9.05048 15.5859 9.23914 15.5859 9.47184C15.5859 9.70453 15.7746 9.8932 16.0073 9.8932Z" fill="#D31212"/>
<path d="M16.0073 11.5874H18.9173C19.15 11.5874 19.3387 11.3988 19.3387 11.1661C19.3387 10.9334 19.15 10.7447 18.9173 10.7447H16.0073C15.7746 10.7447 15.5859 10.9334 15.5859 11.1661C15.5859 11.3988 15.7746 11.5874 16.0073 11.5874Z" fill="#D31212"/>
<path d="M16.0073 13.2641H18.9173C19.15 13.2641 19.3387 13.0754 19.3387 12.8427C19.3387 12.61 19.15 12.4214 18.9173 12.4214H16.0073C15.7746 12.4214 15.5859 12.61 15.5859 12.8427C15.5859 13.0754 15.7746 13.2641 16.0073 13.2641Z" fill="#D31212"/>
</svg>
