<svg width="36" height="40" viewBox="0 0 36 40" fill="none" xmlns="http://www.w3.org/2000/svg">
<path d="M7.49999 13.5752H28.5C28.8779 13.5739 29.2423 13.7279 29.5204 14.0065C29.7985 14.285 29.9698 14.6676 30 15.0778L31.5 34.6762C31.5166 34.9014 31.4901 35.1279 31.4222 35.3414C31.3543 35.5549 31.2464 35.7507 31.1054 35.9165C30.9645 36.0822 30.7934 36.2144 30.6031 36.3045C30.4129 36.3946 30.2075 36.4408 30 36.4401H5.99999C5.79249 36.4408 5.58711 36.3946 5.39683 36.3045C5.20655 36.2144 5.03552 36.0822 4.89454 35.9165C4.75356 35.7507 4.6457 35.5549 4.57779 35.3414C4.50988 35.1279 4.48339 34.9014 4.49999 34.6762L5.99999 15.0778C6.03022 14.6676 6.2015 14.285 6.47959 14.0065C6.75769 13.7279 7.12211 13.5739 7.49999 13.5752Z" fill="#F15B5B"/>
<path d="M13.5 16.8415C13.5 17.2747 13.342 17.6901 13.0607 17.9964C12.7794 18.3026 12.3978 18.4747 12 18.4747C11.6022 18.4747 11.2206 18.3026 10.9393 17.9964C10.658 17.6901 10.5 17.2747 10.5 16.8415V11.9419C10.5 9.77613 11.2902 7.69907 12.6967 6.16765C14.1032 4.63622 16.0109 3.77588 18 3.77588C19.9891 3.77588 21.8968 4.63622 23.3033 6.16765C24.7098 7.69907 25.5 9.77613 25.5 11.9419V16.8415C25.5 17.2747 25.342 17.6901 25.0607 17.9964C24.7794 18.3026 24.3978 18.4747 24 18.4747C23.6022 18.4747 23.2206 18.3026 22.9393 17.9964C22.658 17.6901 22.5 17.2747 22.5 16.8415V11.9419C22.5 10.6424 22.0259 9.3962 21.182 8.47735C20.3381 7.55849 19.1935 7.04228 18 7.04228C16.8065 7.04228 15.6619 7.55849 14.818 8.47735C13.9741 9.3962 13.5 10.6424 13.5 11.9419V16.8415Z" fill="#170202"/>
</svg>
