<svg width="25" height="25" viewBox="0 0 25 25" fill="none" xmlns="http://www.w3.org/2000/svg">
<path d="M16.341 22.3049C16.1388 22.2908 15.9647 22.4442 15.9512 22.6458C15.9126 23.2208 15.8831 23.7646 15.8628 24.2676H7.35703C7.06024 23.9313 6.10352 22.6307 6.10352 19.8402C6.10352 16.9914 7.78217 16.0593 9.13105 15.3103C9.95617 14.8523 10.6686 14.4566 10.7363 13.7047C10.8032 12.9625 11.0437 12.4615 11.594 11.9175C11.7378 11.7752 11.7392 11.5433 11.5969 11.3996C11.4548 11.2556 11.2228 11.2543 11.079 11.3966C10.4094 12.0584 10.0887 12.7291 10.0067 13.6391C9.97391 14.0045 9.445 14.2982 8.77552 14.67C7.41978 15.4228 5.37109 16.5606 5.37109 19.8402C5.37109 23.4947 6.89793 24.8548 6.96297 24.9109C7.02953 24.9683 7.11441 25 7.20234 25H16.2159C16.4137 25 16.5756 24.8432 16.5821 24.6456C16.6012 24.0557 16.6349 23.3994 16.6821 22.6948C16.6956 22.493 16.543 22.3185 16.341 22.3049Z" fill="#D31212"/>
<path d="M9.10593 17.749C8.10705 17.749 7.32446 18.5926 7.32446 19.6695C7.32446 21.3638 9.20683 22.5409 10.3291 23.0919C10.4497 23.1508 10.5931 23.1508 10.7136 23.0917C11.8357 22.5409 13.7179 21.3638 13.7179 19.6695C13.7179 18.5926 12.9355 17.749 11.9364 17.749C11.2717 17.749 10.7998 18.0386 10.5212 18.2812C10.2427 18.0387 9.77064 17.749 9.10593 17.749ZM10.8363 19.0048C10.933 18.882 11.2982 18.4814 11.9364 18.4814C12.6177 18.4814 12.9855 19.0935 12.9855 19.6695C12.9855 20.5919 12.0894 21.5712 10.5212 22.3692C8.95296 21.571 8.05688 20.5917 8.05688 19.6695C8.05688 18.8978 8.59743 18.4814 9.10593 18.4814C9.74394 18.4814 10.109 18.8816 10.2061 19.0046C10.3669 19.2091 10.6761 19.2083 10.8363 19.0048Z" fill="#D31212"/>
<path d="M19.4679 8.535C19.4164 8.33931 19.2162 8.22239 19.0207 8.27389C18.825 8.3252 18.7081 8.52547 18.7594 8.72116C19.0727 9.91344 18.8561 11.051 18.1151 12.1025C17.8551 12.4712 17.5722 12.7659 17.3411 12.9776C17.0288 11.4447 15.9807 8.65326 15.8419 8.28667C15.803 8.18405 15.7204 8.10432 15.6164 8.06942C14.1339 7.56969 13.0366 6.31886 12.3547 4.35162C11.9606 3.21465 11.8262 2.1513 11.7838 1.69125C12.3692 1.42384 14.0127 0.732422 15.3528 0.732422C16.3002 0.732422 17.3321 0.87738 17.8011 1.95293C18.0248 2.46582 18.0733 3.25508 18.1349 4.25434C18.1874 5.10693 18.2467 6.07319 18.4294 7.1722C18.4626 7.37171 18.651 7.50656 18.8507 7.47337C19.0502 7.44038 19.1851 7.25174 19.1519 7.05223C18.9755 5.99041 18.9173 5.04417 18.866 4.20933C18.8 3.13797 18.7479 2.29168 18.4725 1.66035C17.9785 0.527573 16.9872 0 15.3528 0C13.5283 0 11.3281 1.09386 11.2354 1.1404C11.1067 1.20506 11.0277 1.33934 11.0338 1.48335C11.0356 1.52302 11.0653 2.1637 11.2473 3.06015C11.1351 3.60126 10.5629 6.62708 11.4668 7.97348C11.7186 8.34846 12.0594 8.57525 12.4796 8.64754C12.5132 8.65326 12.4781 8.64868 13.0779 8.68893L13.4142 9.7477C13.0171 9.97543 12.6721 10.1862 12.3652 10.3886C12.1962 10.5 12.1496 10.7271 12.261 10.8959C12.3715 11.0636 12.5982 11.112 12.7684 11.0001C13.1052 10.7779 13.4922 10.544 13.9492 10.2861H15.7835C16.2428 11.6264 16.6666 13.0243 16.6949 13.5906V13.5916C16.6958 13.7274 16.6964 13.8681 16.6964 14.0137C16.6964 14.669 16.5604 16.0173 16.403 17.5787C16.2955 18.6455 16.1736 19.8545 16.0706 21.0772C16.0536 21.2786 16.2033 21.4558 16.4049 21.4727C16.4152 21.4737 16.4257 21.4741 16.436 21.4741C16.6245 21.4741 16.7845 21.3297 16.8005 21.1386C16.9031 19.9221 17.0246 18.716 17.1318 17.6521C17.2978 16.0061 17.4288 14.7058 17.4288 14.0137C17.4288 13.9616 17.4288 13.9103 17.4286 13.8596C17.692 13.66 18.223 13.2141 18.6978 12.5471C19.5696 11.3226 19.8359 9.93519 19.4679 8.535ZM12.5864 7.92255C12.3739 7.88155 12.2111 7.76787 12.0753 7.5655C11.6768 6.97231 11.6507 5.81856 11.7365 4.79755C12.4689 6.7749 13.6666 8.11939 15.2165 8.70419C15.3067 8.94508 15.4022 9.20544 15.4995 9.47647C15.1419 9.47418 14.4655 9.47838 14.1089 9.515L13.7003 8.22906C13.6545 8.08544 13.5256 7.98435 13.3753 7.97443L12.5864 7.92255Z" fill="#D31212"/>
</svg>
