<svg xmlns="http://www.w3.org/2000/svg" width="1074" height="739" data-name="Layer 1"><defs><linearGradient id="a" x1="607.4" x2="607.4" y1="789.6" y2="80.5" gradientUnits="userSpaceOnUse"><stop offset="0" stop-color="gray" stop-opacity=".3"/><stop offset=".5" stop-color="gray" stop-opacity=".1"/><stop offset="1" stop-color="gray" stop-opacity=".1"/></linearGradient></defs><rect width="80" height="30" x="330" y="77" fill="#f3807b" opacity=".1" rx="5.2" ry="5.2"/><rect width="80" height="30" x="568" y="50" fill="#f3807b" opacity=".1" rx="5.2" ry="5.2"/><rect width="80" height="30" x="524" y="355" fill="#f3807b" opacity=".1" rx="5.2" ry="5.2"/><rect width="80" height="30" x="560" y="388" fill="#f3807b" opacity=".1" rx="5.2" ry="5.2"/><rect width="80" height="30" x="774" y="373" fill="#f3807b" opacity=".1" rx="5.2" ry="5.2"/><rect width="80" height="30" x="123" y="397" fill="#f3807b" opacity=".1" rx="5.2" ry="5.2"/><rect width="80" height="30" x="499" y="421" fill="#f3807b" opacity=".1" rx="5.2" ry="5.2"/><path fill="url(#a)" d="M782 262.7l-36.8-106.4-13.1 2-11.8 1.5c.3-4 .8-18.4-6.5-25.9-.7-2.6-2.6-5.5-6.2-8.8-17.5-16-21.2 16.8-21.2 16.8l-9.5 16.6-2.9-.5-.8 7.2c-12.2 21.5-28.4 50.7-28.4 53.5 0 4.4-2.2 10.2-2.2 10.2s-12.4 20.4-16.8 30.7a49 49 0 0 1-11 16l-2.8 2a25 25 0 0 1 1-5.6c1.6-5.3 5.3-9.8 6.3-15.1a17.6 17.6 0 0 0 .2-4c.3-6.2-2.8-12.5-4-18.8-1.6-7.3-.8-15.3-4.7-21.7-3-4.8-8.3-7.9-13.8-9.2-5.1-1.3-10.1-.9-15.2-1.4-4.7-.5-9.2-2.6-14-3.4a18 18 0 0 0-7.5 0c-8 2.2-10.5 12.3-16.6 17.8-2.2 2-5 3.3-7 5.5-2.8 3.2-3.9 7.7-3.7 12a25.6 25.6 0 0 0 .3 4.4c.7 5.2 2.7 10.2 4 15.3a53 53 0 0 1 1.4 11.6v2.6a9.2 9.2 0 0 1-1.4 5c-1 1.6-3 2.3-4.6 3.3a35.5 35.5 0 0 1-11.5-16.3l-.7 1v-1s-10-14.7-11.5-26.7l3.5.3 8-112.5-20.5-3a46.6 46.6 0 0 0-6.2-20.4c3.4-6.8 5.2-16-9.9-16.8-17.6-1-16.5 12.6-14.6 20.1a50.5 50.5 0 0 0-1 12.5l-18-2.6-.1 1.4h-4.3l-13.1 114.8 11.2-.5 40.9 4.2c3.2 29.8 8.4 66.5 14.5 75.2a7.4 7.4 0 0 0 .6.8V359s-.7 68-13.1 79a65 65 0 0 1 23.8-3.8l-.5 1.4a127.6 127.6 0 0 0-3.8 20.5l-.4 4.8a257.9 257.9 0 0 0 .6 45.7c5.1 54.1 13.2 92.8 13.2 92.8L522 631s-2.2 53.3 3.6 70.9a26.5 26.5 0 0 0 7.5 4.8l.2 1.6.2 2c-2.6 1.2-7.5 6-8.6 24.5 0 0 1.5 13.8-2.2 20.4s-1.4 25.6 9.5 27.8a58.6 58.6 0 0 0 21.2 0s5.1 0 1.5-18.3l-.7-4.7c0-9 .3-18.7 2.1-21.6 3.7-5.8-1.4-11.7-1.4-11.7l-1 .5c-1-5-2.1-13.3-1.7-19.5l.1-1.6a30.8 30.8 0 0 0 6.2-4.2v-69.4s-.7-106.7 7.3-109c0 0 3.7 38.8 2.2 57.8s2.2 39.5 2.2 39.5l1.5 77.4s1.4.7 3.7 1.5l-.2 1.4c-.9 8.6-2.3 21.6-3.6 29.6a5.9 5.9 0 0 0-3.6 4c-2.2 7.4-.7 25.7-5 30.8-2.7 3-5.8 9-4.3 13.4-1 3.8-.5 9.7 10.8 10.7 16.8 1.5 24.1-7.3 24.1-7.3s2.2-3.7 0-10.2.7-18.3.7-18.3 1.6-10-1-11.2l-.4-2a8.8 8.8 0 0 0-2.3-6c0-7.7.3-21.8 3-31.2l.4-1.5a19.7 19.7 0 0 0 6.2-2.2s-.7-16.8 4.4-28.5 2.2-58.5 2.2-58.5-2.2-12.2.9-22.2a218.3 218.3 0 0 0 8-33.8l4.3-30.2s11.3-36.7-3.6-74.5a85.4 85.4 0 0 0-6.2-12.8l-.8-1.2 2.5-.7s-19.7-46-7.3-69.4c0 0 7-7 8-14.7 1.2-10.2 2.6-20.3 4.8-30.3l.4-1.8.2-1 .8-.5c21-15.4 39.2-79.6 39.2-79.6l5.8-11 2.8-5.9-5.7 49.8 44.6 11 28.5-2.2v-6.2l21.6-1.7zm-282.7-145l-8-1.2-2.2-11.8a43.4 43.4 0 0 0 4.3-6.6 45.5 45.5 0 0 1 6 19.6zm-29.6-15.3l1 3 1 8.3-2.6-.4a54.2 54.2 0 0 1 .6-11zM719.5 160l-10.7 1.3a40.2 40.2 0 0 0 2.3-18.3 9.2 9.2 0 0 0 3-7.6c6.3 7.6 5.7 21 5.4 24.5zm-17.8-11.4a26.6 26.6 0 0 0 8.8-5c.9 6.5-1 13.6-2.5 17.8l-10 1.3-2.8-.5z" transform="translate(-63 -80.5)"/><path fill="#f3807b" d="M717 184.1L690.9 195 660.6 89.3l7.1-8.4 13-2.1L717 184.1z"/><path fill="#fff" d="M717 184.1L690.9 195 660.6 89.3l7.1-8.4 13-2.1L717 184.1z" opacity=".2"/><path fill="#f3807b" d="M667.7 80.9l-45.3 5.8 23.2 111.8 45.3-3.5-23.2-114.1z"/><path fill="#fff" d="M667.7 80.9l-45.3 5.8 23.2 111.8 45.3-3.5-23.2-114.1z" opacity=".1"/><path fill="#535461" d="M656 83.4l-.8-.1c0-.3 3-26.7-13.6-30l.2-.7C659 56 656 83 655.9 83.4z"/><path fill="#774e55" d="M488.4 160.4h49.9v73h-49.9z"/><path d="M488.4 160.4h49.9v73h-49.9z" opacity=".2"/><path fill="#f3807b" d="M669.5 202.7l-28.2 2.2L645.7 95l9.3-5.8 13.1 2.2 1.4 111.3z"/><path d="M669.5 202.7l-28.2 2.2L645.7 95l9.3-5.8 13.1 2.2 1.4 111.3z" opacity=".2"/><path fill="#f3807b" d="M655 89.2l-44.8-8.6-13 113.5 44.1 10.8L655 89.2zM391.2 35h-6.5l-13 113.5 28.9-1.4L391.2 35z"/><path d="M391.2 35h-6.5l-13 113.5 28.9-1.4L391.2 35z" opacity=".2"/><path fill="#f3807b" d="M389.1 33.6l-8 114.2 69.4 7.2 7.9-111.3-69.3-10.1z"/><path fill="#5c3d53" d="M472.9 626.3s-8.7-.7-10.1 24.6c0 0 1.4 13.7-2.2 20.2s-1.4 25.3 9.4 27.5a58 58 0 0 0 21 0s5 0 1.5-18l-7.3-52.8z"/><path d="M472.9 626.3s-8.7-.7-10.1 24.6c0 0 1.4 13.7-2.2 20.2s-1.4 25.3 9.4 27.5a58 58 0 0 0 21 0s5 0 1.5-18l-7.3-52.8z" opacity=".1"/><path fill="#f8bdc5" d="M518.4 208.9c-.7 10.8 1.5 17 1.5 17l-18.8 5s-31 4.4-18.8-8c4.2-4.2 6.3-11.5 7.2-19.2a106.6 106.6 0 0 0 .6-15.8 141.2 141.2 0 0 0-1.3-14.8s45.5-16 35.4 10.1a92.5 92.5 0 0 0-4.3 14.5 76.5 76.5 0 0 0-1.6 11.2z"/><path d="M524.2 183.2a92.5 92.5 0 0 0-4.3 14.5A31.1 31.1 0 0 1 490 188a141.2 141.2 0 0 0-1.3-14.8s45.5-16 35.4 10.1z" opacity=".1"/><circle cx="513.4" cy="165.9" r="31.1" fill="#f8bdc5"/><path fill="#f8bdc5" d="M458.4 181v9.4l-15.9 41.2-4.3-4.3a7.3 7.3 0 0 1-.7-.8c-10.5-15-18.1-114.1-18.1-114.1l-10.1-83.9s-10.8-26 13-24.6 5 23.9 5 23.9 16 79.5 13.8 82.4 0 11.5 0 11.5 6.5 16.7 5.8 29 11.5 30.3 11.5 30.3zM637.7 71.2l-37.6 79.5-5.8 10.8s-18 63.5-38.8 78.7a19 19 0 0 1-3.8 2.3l-4.4-34.7 4-10.1.3-.8a48.5 48.5 0 0 0 10.9-15.9c4.3-10.1 16.6-30.4 16.6-30.4s2.2-5.7 2.2-10 41.2-76 41.2-76 3.6-32.5 21-16.6-5.8 23.2-5.8 23.2zM492.4 648s-24.6 10.1-21.7.7c1.8-5.7 1.1-16.5.3-24l-1-8.5 21 2.2a17 17 0 0 0-1.2 5.7c-.7 9.6 2.6 23.9 2.6 23.9zM530.6 619.9c-3.8 13.1-2.8 36-2.8 36s-22.4 3-20.2-2.8c1.5-4 3.7-23.9 5-35.5l.8-8.6 20.2 4.3a20.2 20.2 0 0 0-3 6.6z"/><path d="M470 616.2l21 2.2a17 17 0 0 0-1.2 5.7 21.4 21.4 0 0 1-18.7.6c-.5-5-1.1-8.5-1.1-8.5zM533.6 613.3a20.2 20.2 0 0 0-3 6.6c-6.8 1-14-.9-18-2.3l.8-8.6z" opacity=".1"/><path fill="#5e52ad" d="M556.8 444.9l-4.3 29.8a216 216 0 0 1-7.9 33.5c-3 9.8-.9 22-.9 22s3 46.2-2.1 57.8-4.4 28.2-4.4 28.2c-11.5 6.5-28.2-1.5-28.2-1.5l-1.4-76.6s-3.6-20.2-2.2-39-2.1-57-2.1-57c-8 2-7.3 107.6-7.3 107.6v68.7c-17.3 15.2-32.5 0-32.5 0-5.8-17.4-3.6-70.1-3.6-70.1l-2.2-31.1s-8-38.3-13-91.8a255 255 0 0 1-.6-45.2l.4-4.8a126.2 126.2 0 0 1 3.8-20.2 45.6 45.6 0 0 1 2.2-6.4l77.7 3.6 4.5.2 11 .5a96.6 96.6 0 0 1 9.5 18.1c14.8 37.3 3.5 73.7 3.5 73.7z"/><path d="M471.5 356S468 390 444 380l.4-4.7c5.7 1.5 21.3 3.6 21.9-19.4zM553.2 371.2c-16.6 6-22.9-9.8-25-18.8l4.6.2c2.5 14.1 12.4 15 18.5 14a187 187 0 0 1 1.9 4.6z" opacity=".1"/><path fill="#5c3d53" d="M479.3 644.1c-3.6-.5-9.3-2.6-7.5-9.7 0 0-6.8-2.3-6.1 25.9 0 0-.7 13.7-2.2 16.6s0 20.2 15.2 18.8c0 0 10.8 3.6 13.7-2.2 0 0-2.2-33.2 1.5-39s-1.5-11.5-1.5-11.5-5.1 2.8-8.8 2c-1.4-.4-2.8-.6-4.3-.9zM497.5 691.4s-7.3 12.3 9.4 13.7 23.8-7.2 23.8-7.2 2.2-3.6 0-10.2.7-18 .7-18 2.2-13.8-2.8-10.9-31.1 32.6-31.1 32.6z"/><path d="M497.5 691.4s-7.3 12.3 9.4 13.7 23.8-7.2 23.8-7.2 2.2-3.6 0-10.2.7-18 .7-18 2.2-13.8-2.8-10.9-31.1 32.6-31.1 32.6z" opacity=".1"/><path fill="#5c3d53" d="M516.3 647.3s-8.7-3.6-10.9 3.6-.7 25.3-5 30.3-10.1 18.8 7.2 18.1 21-6.5 21-6.5-.7-18 1.4-23.1 0-13 0-13 .7-10.2-13.7-9.4z"/><circle cx="407.8" cy="43.7" r="1.4" opacity=".2"/><circle cx="438.2" cy="47.3" r="1.4" opacity=".2"/><path fill="#535461" d="M438.6 47.3h-.8c0-.3.5-30.8-17-33.6-3.4-.5-6.2.2-8.3 2.3-7.3 7.2-4.3 27.4-4.3 27.6l-.7.2c0-.9-3-20.9 4.5-28.3 2.2-2.3 5.3-3.1 9-2.5 18 2.9 17.6 34 17.6 34.3zM643 88l-.6-.4c.2-.2 11.3-24.3-3.4-32.7l.3-.7c15.3 8.8 4 33.5 3.8 33.7z"/><path d="M519.9 225.9l-18.8 5s-31 4.4-18.8-8c4.2-4.2 6.3-11.5 7.2-19.2 5 7.7 10.9 5.5 10.9 5.5l17.9-.4c-.6 10.9 1.6 17 1.6 17zM555.5 240.3a19 19 0 0 1-3.8 2.2l-4.4-34.7 4-10.1 1-.8c9 2.6 4.4 35.8 3.3 43.3zM458.4 181v9.4l-15.9 41.2-4.3-4.3a7.3 7.3 0 0 1-.7-.8c2-21.5 21-45.5 21-45.5zM547.1 358.6c-10.1 2.5-62.9 14.9-78.5 3.1a35.7 35.7 0 0 0-20.3-6.5 45.6 45.6 0 0 1 2.2-6.5l77.7 3.6 4.5.3 11 .5a100 100 0 0 1 3.4 5.5z" opacity=".1"/><path fill="#f8bdc5" d="M411.1 10s10.8 18.2 18 0M634 47.3S629.9 69 647 59"/><g opacity=".1"><path d="M499.9 449.1l-.6-7.1c-8 2.2-7.3 107.7-7.3 107.7v68.7c-5 4.4-10 6.2-14.3 6.6 5.2.5 11.4-1 18-6.6v-68.7s-.6-76.5 4.2-100.6z"/><path d="M552.8 371.2a93.1 93.1 0 0 0-9.5-18.1l-11-.5-4.5-.2-77.7-3.6v.1l74 3.5 4.6.2 11 .5a96.6 96.6 0 0 1 9.5 18.1c14.8 37.3 3.6 73.7 3.6 73.7l-4.3 29.8a216 216 0 0 1-7.8 33.5c-3.1 9.8-1 22-1 22s3 46.2-2.1 57.8-4.3 28.2-4.3 28.2a21 21 0 0 1-9.1 2.5 23 23 0 0 0 12.7-2.5s-.7-16.6 4.3-28.2 2.2-57.8 2.2-57.8-2.2-12.2.9-22a216 216 0 0 0 7.8-33.5l4.3-29.8s11.2-36.4-3.6-73.7z"/></g><path fill="#eb6475" d="M518.3 210.3c10 4.7 33.4-13.4 33.4-13.4 10.1 3 2.9 44.9 2.9 44.9l-.4 1.7c-2.2 9.9-3.5 20-4.8 30-.9 7.6-7.8 14.5-7.8 14.5-12.3 23.2 7.2 68.7 7.2 68.7s-62.9 16.6-80.2 3.6-43.4-2.9-43.4-2.9c12.3-10.8 13-78 13-78v-52c1.4-21.7 21-46.3 21-46.3a36.3 36.3 0 0 0 30.2 23.9c5 8 11 5.7 11 5.7z"/><path d="M505.3 122a17.7 17.7 0 0 0-7.5 0c-7.9 2.2-10.4 12.1-16.4 17.6-2.2 2-5 3.3-6.9 5.5-3.5 3.9-4.2 9.6-3.5 14.7s2.8 10.1 4 15.2a52.4 52.4 0 0 1 1.4 15.5 9.1 9.1 0 0 1-1.3 5c-1.5 2-4.1 2.5-6 4.1-5.8 5-1 15.2-5.2 21.5-1.8 2.8-5.2 4.6-6 7.8-.4 2.2.6 4.5 1.7 6.6 2.6 5.5 5.4 11.2 10 15.3s10.1 6.1 15.7 8.2c1.7.6 3.8 1.2 5 0 1.7-1.6.5-4.3-.6-6.2-1.8-3-3.1-6.6-2.1-10s4.3-5.6 6.5-8.4c5.7-7.3 3.8-17.8 1-26.6-1.2-3.7-2.5-7.7-1.5-11.4.4-1.7 1.2-3.1 1.8-4.7 2.4-7-1.6-14.9-.5-22.2a32 32 0 0 1 3-8.3l6.4-13.7a13.5 13.5 0 0 1 2.8-4.4 10 10 0 0 1 7-2.2 19 19 0 0 1 13.6 6.2c6.8 7.6 6.4 19 5.6 29.1l-.6 7.3c-.4 5.3-1 10.8-4.3 15-2.6 3-6.7 5.2-7.8 9.2-1 3.4.8 7-.1 10.4-1.4 5.1-7.6 7-11 11a11.3 11.3 0 0 0-.7 12.7c1.2 2 3.2 4 3 6.3-.3 2-2 3.5-2 5.4a4.2 4.2 0 0 0 3.1 3.6 12.4 12.4 0 0 0 5 .3l18-1.7a6.3 6.3 0 0 0 3.2-.8c1.2-1 1.7-2.6 1.8-4.1.7-6.4-1-13.4 2.2-19 1-1.8 2.5-3.2 3.6-5 6.1-9.6 0-22.6 3.3-33.5 1.6-5.1 5.2-9.6 6.2-14.9 1.3-7-2.4-14-3.8-21-1.5-7.2-.7-15.2-4.5-21.5a22 22 0 0 0-13.7-9.1c-5-1.3-10-.8-15-1.4-4.8-.5-9.3-2.6-14-3.3z" opacity=".1"/><path fill="#774e55" d="M505.3 120.6a17.7 17.7 0 0 0-7.5 0c-7.9 2.2-10.4 12-16.4 17.5-2.2 2-5 3.4-6.9 5.5-3.5 3.9-4.2 9.6-3.5 14.8s2.8 10 4 15.1a52.4 52.4 0 0 1 1.4 15.6 9.1 9.1 0 0 1-1.3 4.9c-1.5 2-4.1 2.6-6 4.2-5.8 5-1 15.2-5.2 21.5-1.8 2.7-5.2 4.5-6 7.7-.4 2.3.6 4.6 1.7 6.7 2.6 5.5 5.4 11.1 10 15.2s10.1 6.2 15.7 8.3c1.7.6 3.8 1.2 5-.1 1.7-1.6.5-4.2-.6-6.1-1.8-3-3.1-6.6-2.1-10s4.3-5.6 6.5-8.5c5.7-7.3 3.8-17.7 1-26.5-1.2-3.8-2.5-7.7-1.5-11.5.4-1.6 1.2-3 1.8-4.7 2.4-7-1.6-14.8-.5-22.2a32 32 0 0 1 3-8.3l6.4-13.6a13.5 13.5 0 0 1 2.8-4.4 10 10 0 0 1 7-2.2 19 19 0 0 1 13.6 6.2c6.8 7.6 6.4 19 5.6 29l-.6 7.4c-.4 5.2-1 10.8-4.3 14.9-2.6 3.1-6.7 5.3-7.8 9.2-1 3.4.8 7-.1 10.5-1.4 5-7.6 6.9-11 11a11.3 11.3 0 0 0-.7 12.6c1.2 2 3.2 4 3 6.4-.3 1.9-2 3.4-2 5.3a4.2 4.2 0 0 0 3.1 3.7 12.4 12.4 0 0 0 5 .2l18-1.6a6.3 6.3 0 0 0 3.2-.9c1.2-.9 1.7-2.5 1.8-4 .7-6.5-1-13.4 2.2-19 1-1.8 2.5-3.3 3.6-5 6.1-9.6 0-22.6 3.3-33.5 1.6-5.2 5.2-9.6 6.2-15 1.3-7-2.4-14-3.8-21-1.5-7.2-.7-15.1-4.5-21.4a22 22 0 0 0-13.7-9.2c-5-1.2-10-.8-15-1.3-4.8-.6-9.3-2.6-14-3.4z"/><path d="M466.8 286.2s14.4 4.3 35.4-5H513s.7 10 29 5.7" opacity=".1"/><ellipse cx="537" cy="690" fill="#f3807b" opacity=".1" rx="537" ry="49"/><rect width="80" height="30" x="252" y="258" fill="#f3807b" opacity=".1" rx="5.2" ry="5.2"/><rect width="80" height="30" x="288" y="291" fill="#f3807b" opacity=".1" rx="5.2" ry="5.2"/><rect width="80" height="30" x="603" y="260" fill="#f3807b" opacity=".1" rx="5.2" ry="5.2"/><rect width="80" height="30" x="639" y="293" fill="#f3807b" opacity=".1" rx="5.2" ry="5.2"/><rect width="80" height="30" x="227" y="324" fill="#f3807b" opacity=".1" rx="5.2" ry="5.2"/><rect width="80" height="30" x="307" y="441" fill="#f3807b" opacity=".1" rx="5.2" ry="5.2"/><rect width="80" height="30" x="343" y="474" fill="#f3807b" opacity=".1" rx="5.2" ry="5.2"/><rect width="80" height="30" x="282" y="507" fill="#f3807b" opacity=".1" rx="5.2" ry="5.2"/><rect width="80" height="30" x="629" y="525" fill="#f3807b" opacity=".1" rx="5.2" ry="5.2"/><rect width="80" height="30" x="568" y="558" fill="#f3807b" opacity=".1" rx="5.2" ry="5.2"/><g opacity=".1"><path fill="none" stroke="#535461" stroke-miterlimit="10" stroke-width="2" d="M945.3 663.4s-14.5-73.4 15.3-123.6a113.3 113.3 0 0 0 15.6-70 190.6 190.6 0 0 0-7-34.1"/><path fill="#f3807b" d="M987.8 403.9c-.8 8.7-19 32.7-19 32.7s-13.5-26.9-12.7-35.7a16 16 0 0 1 31.7 3zM1009.6 454.8c-5.4 6.9-33.7 17-33.7 17s3.2-29.8 8.7-36.7a16 16 0 1 1 25 19.7zM1000.8 537.5c-8.1 3.2-37.7-2.2-37.7-2.2s17.9-24.2 26-27.4a16 16 0 0 1 11.7 29.6zM980.1 598.6c-7.5 4.6-37.6 4.2-37.6 4.2s13.6-26.8 21.1-31.4a16 16 0 1 1 16.5 27.2zM942.5 470.5c5.7 6.7 34.4 15.7 34.4 15.7s-4.5-29.7-10.3-36.4a16 16 0 1 0-24.1 20.7zM919.1 542.3c7.5 4.7 37.5 4.7 37.5 4.7s-13.2-27-20.6-31.7a16 16 0 1 0-16.9 27zM906 615.2c6.6 5.9 36.2 11 36.2 11s-8.5-28.9-15-34.7a16 16 0 1 0-21.2 23.7z"/></g><g opacity=".1"><path fill="none" stroke="#535461" stroke-miterlimit="10" stroke-width="2" d="M819.6 647.3s-7.7-39.4 8.3-66.4a60.8 60.8 0 0 0 8.4-37.6 102.3 102.3 0 0 0-3.8-18.3"/><path fill="#f3807b" d="M842.5 508c-.4 4.6-10.2 17.5-10.2 17.5s-7.3-14.4-6.8-19.1a8.6 8.6 0 0 1 17 1.5zM854.2 535.3c-3 3.7-18.1 9.2-18.1 9.2s1.7-16 4.6-19.8a8.6 8.6 0 0 1 13.5 10.6zM849.5 579.7c-4.4 1.7-20.3-1.2-20.3-1.2s9.6-13 14-14.7a8.6 8.6 0 0 1 6.3 15.9zM838.3 612.5c-4 2.5-20.1 2.2-20.1 2.2s7.2-14.4 11.3-16.8a8.6 8.6 0 1 1 8.8 14.6zM818.1 543.7c3 3.6 18.5 8.4 18.5 8.4s-2.4-16-5.5-19.5a8.6 8.6 0 0 0-13 11.1zM805.6 582.3c4 2.5 20.1 2.5 20.1 2.5s-7-14.5-11-17a8.6 8.6 0 0 0-9.1 14.5zM798.6 621.4c3.5 3.1 19.4 5.9 19.4 5.9s-4.5-15.5-8-18.6a8.6 8.6 0 0 0-11.4 12.7z"/></g><g opacity=".1"><path fill="none" stroke="#535461" stroke-miterlimit="10" stroke-width="2" d="M186.6 653.3s-7.7-39.4 8.3-66.4a60.8 60.8 0 0 0 8.3-37.6 102.3 102.3 0 0 0-3.7-18.3"/><path fill="#f3807b" d="M209.5 514c-.4 4.6-10.2 17.5-10.2 17.5s-7.3-14.4-6.8-19.1a8.6 8.6 0 0 1 17 1.5zM221.2 541.3c-3 3.7-18.1 9.2-18.1 9.2s1.7-16 4.6-19.8a8.6 8.6 0 0 1 13.5 10.6zM216.5 585.7c-4.4 1.7-20.3-1.2-20.3-1.2s9.6-13 14-14.7a8.6 8.6 0 0 1 6.3 15.9zM205.3 618.5c-4 2.5-20.1 2.2-20.1 2.2s7.2-14.4 11.3-16.8a8.6 8.6 0 1 1 8.8 14.6zM185.1 549.7c3 3.6 18.5 8.4 18.5 8.4s-2.4-16-5.5-19.5a8.6 8.6 0 0 0-13 11.1zM172.6 588.3c4 2.5 20.1 2.5 20.1 2.5s-7-14.5-11-17a8.6 8.6 0 0 0-9.1 14.5zM165.6 627.4c3.5 3.1 19.4 5.9 19.4 5.9s-4.5-15.5-8-18.6a8.6 8.6 0 0 0-11.4 12.7z"/></g></svg>