<svg width="24" height="24" viewBox="0 0 24 24" fill="none" xmlns="http://www.w3.org/2000/svg">
<path d="M12.0048 1.50228C9.29485 1.50228 7.08971 3.70526 7.08622 6.41445C7.07199 6.65087 6.88421 10.3405 8.80425 12.3863C9.619 13.2544 10.6958 13.6946 12.0048 13.6946C13.1803 13.6946 14.1743 13.2903 14.959 12.4931C16.9641 10.4559 16.926 6.58158 16.9234 6.42098C16.9234 3.7088 14.7169 1.50228 12.0048 1.50228ZM12.0048 1.91937C13.7392 1.91937 15.2475 2.90553 15.9989 4.34754H15.4665C15.3513 4.34754 15.2579 4.44092 15.2579 4.55608C15.2579 4.67125 15.3513 4.76463 15.4665 4.76463H16.19C16.2538 4.92514 16.3083 5.09021 16.3535 5.2591H7.65558C7.7784 4.79966 7.97218 4.36893 8.22454 3.97951H9.52901C9.64418 3.97951 9.73756 3.88613 9.73756 3.77097C9.73756 3.6558 9.64418 3.56242 9.52901 3.56242H8.52985C9.35619 2.55973 10.6071 1.91937 12.0048 1.91937ZM14.6616 12.2005C13.9583 12.9151 13.0644 13.2775 12.0048 13.2775C10.8161 13.2775 9.84183 12.8819 9.10922 12.1018C7.2908 10.1656 7.50052 6.47122 7.50287 6.43413C7.50312 6.42976 7.50327 6.42534 7.50327 6.42098C7.50327 6.16728 7.52466 5.9186 7.56524 5.67624H16.444C16.4848 5.91958 16.5064 6.16944 16.5064 6.42426C16.507 6.46268 16.5455 10.2865 14.6616 12.2005Z" fill="#D31212"/>
<path d="M20.7181 14.9142C18.6516 14.0329 18.257 9.66499 18.2532 9.62097C18.2435 9.50625 18.1429 9.42141 18.0278 9.43083C17.913 9.44055 17.828 9.54143 17.8377 9.65621C17.8537 9.84611 18.2578 14.3184 20.5545 15.2979C20.5812 15.3093 20.6089 15.3147 20.6362 15.3147C20.7172 15.3147 20.7944 15.2671 20.8281 15.1879C20.8733 15.0819 20.8241 14.9594 20.7181 14.9142Z" fill="#D31212"/>
<path d="M22.1379 15.9744C22.5514 15.5365 22.7214 15.2278 22.7338 15.2048C22.7615 15.1533 22.7663 15.0924 22.7469 15.0371C22.7275 14.9818 22.6858 14.9372 22.6319 14.9143C20.3022 13.9206 19.0273 11.2021 18.8427 6.83394C18.7649 4.99304 18.033 3.27869 16.7819 2.00666C15.5091 0.71264 13.8109 0 12.0001 0C10.1892 0 8.49099 0.71264 7.21827 2.00666C5.96714 3.27869 5.23526 4.99309 5.15749 6.83394C4.97289 11.202 3.69801 13.9206 1.36828 14.9143C1.3144 14.9372 1.27264 14.9818 1.25326 15.0371C1.23388 15.0924 1.23863 15.1532 1.26636 15.2048C1.27872 15.2279 1.44929 15.5375 1.86418 15.9765C1.40395 16.3294 0.33374 17.3538 0.33374 19.2492V23.7914C0.33374 23.9066 0.42712 24 0.542287 24C0.657453 24 0.750833 23.9066 0.750833 23.7914V22.0863H3.78795C3.90312 22.0863 3.9965 21.9929 3.9965 21.8777C3.9965 21.7626 3.90312 21.6692 3.78795 21.6692H0.750833V20.9577H1.97237C2.08754 20.9577 2.18092 20.8643 2.18092 20.7491C2.18092 20.634 2.08754 20.5406 1.97237 20.5406H0.750833V19.2493C0.750833 18.821 0.811532 18.4433 0.907856 18.1116H1.57977C1.69493 18.1116 1.78831 18.0183 1.78831 17.9031C1.78831 17.7879 1.69493 17.6945 1.57977 17.6945H1.05644C1.39595 16.8995 1.92718 16.4452 2.16326 16.2729C2.48555 16.5731 2.9074 16.9096 3.45016 17.2461C4.91705 18.1558 7.5911 19.2402 12.0001 19.2402C16.409 19.2402 19.0831 18.1558 20.55 17.2461C21.0937 16.9089 21.5161 16.5718 21.8386 16.2713C22.1563 16.4999 23.0995 17.3044 23.2334 18.8722H21.6984C21.5832 18.8722 21.4899 18.9656 21.4899 19.0808C21.4899 19.1959 21.5832 19.2893 21.6984 19.2893H23.2493V19.9272H19.8338C19.7185 19.9272 19.6252 20.0206 19.6252 20.1358C19.6252 20.2509 19.7185 20.3443 19.8338 20.3443H23.2493V20.9822H22.2872C22.172 20.9822 22.0787 21.0756 22.0787 21.1908C22.0787 21.3059 22.172 21.3993 22.2872 21.3993H23.2493V23.7915C23.2493 23.9066 23.3426 24 23.4578 24C23.5731 24 23.6664 23.9066 23.6664 23.7915V19.2493C23.6664 17.3357 22.5862 16.3154 22.1379 15.9744ZM20.2995 16.9106C18.8802 17.7831 16.2882 18.8231 12.0001 18.8231C7.71191 18.8231 5.11995 17.7831 3.70061 16.9106C2.57495 16.2186 1.98994 15.5203 1.75711 15.1954C2.07042 15.0434 2.36518 14.8602 2.64149 14.6466C3.86269 15.8616 6.72276 17.7681 12.638 17.7681C12.7532 17.7681 12.8465 17.6748 12.8465 17.5596C12.8465 17.4444 12.7532 17.3511 12.638 17.3511C6.91203 17.3511 4.1494 15.5451 2.96245 14.3774C3.14779 14.2088 3.32361 14.0247 3.48995 13.8255C3.89713 14.2285 4.38086 14.605 4.93182 14.9458C4.96602 14.9669 5.0039 14.977 5.04134 14.977C5.11117 14.977 5.17942 14.9419 5.21888 14.8781C5.27948 14.7801 5.2492 14.6516 5.15126 14.591C4.6108 14.2567 4.14003 13.8878 3.74821 13.4938C4.17968 12.8987 4.53784 12.1883 4.82033 11.365C5.25254 10.1053 5.49911 8.62891 5.57424 6.85156C5.72665 3.24346 8.54919 0.417093 12.0001 0.417093C15.4509 0.417093 18.2735 3.24346 18.4259 6.85156C18.501 8.62891 18.7476 10.1053 19.1798 11.365C19.8206 13.2326 20.8503 14.5199 22.243 15.1954C22.0099 15.5206 21.425 16.2187 20.2995 16.9106Z" fill="#D31212"/>
</svg>
